# xmcd
#
# Track frame offsets: 
#        182
#        8587
#        22985
#        33870
#        46610
#        57202
#        71822
#        85180
#        97900
#        108410
#        122880
#        132060
#
# Disc length: 1951 seconds
#
# Revision: 2
# Processed by: cddbd v1.5.2PL0 Copyright (c) Steve Scherf et al.
# Submitted via: ExactAudioCopy v0.95a5
#
DISCID=89079d0c
DTITLE=Jim Reeves - Twelve Songs Of Christmas
DYEAR=1963
DGENRE=Christmas
TTITLE0=Jingle Bells
TTITLE1=Blue Christmas
TTITLE2=Senor Santa Claus
TTITLE3=An Old Christmas Card
TTITLE4=The Merry Christmas Polka
TTITLE5=White Christmas
TTITLE6=Silver Bells
TTITLE7=C-H-R-I-S-T-M-A-S
TTITLE8=O Little Town Of Bethlehem
TTITLE9=Mary's Little Boy Child
TTITLE10=Oh Come, All Ye Faithful (Adeste Fideles)
TTITLE11=Silent Night
EXTD=
EXTT0=
EXTT1=
EXTT2=
EXTT3=
EXTT4=
EXTT5=
EXTT6=
EXTT7=
EXTT8=
EXTT9=
EXTT10=
EXTT11=
PLAYORDER=
